<mxfile host="app.diagrams.net" modified="2023-01-31T22:55:07.898Z" agent="5.0 (Windows)" etag="RMHQB0E3oMI39n2lizgN" version="20.8.14" type="github">
  <diagram name="Page-1" id="2BnUcEGA5u0boUWwKSjO">
    <mxGraphModel dx="1456" dy="1453" grid="1" gridSize="10" guides="1" tooltips="1" connect="1" arrows="1" fold="1" page="0" pageScale="1" pageWidth="850" pageHeight="1100" math="0" shadow="0">
      <root>
        <mxCell id="0" />
        <mxCell id="1" parent="0" />
        <mxCell id="oZF6oQhaKxFa7QE7Eed3-31" value="" style="edgeStyle=none;rounded=0;orthogonalLoop=1;jettySize=auto;html=1;fontSize=14;startSize=8;endSize=8;entryX=0.5;entryY=0;entryDx=0;entryDy=0;exitX=0.5;exitY=1;exitDx=0;exitDy=0;" edge="1" parent="1" source="oZF6oQhaKxFa7QE7Eed3-11" target="oZF6oQhaKxFa7QE7Eed3-12">
          <mxGeometry relative="1" as="geometry">
            <Array as="points" />
          </mxGeometry>
        </mxCell>
        <mxCell id="oZF6oQhaKxFa7QE7Eed3-9" value="Start" style="rounded=1;whiteSpace=wrap;html=1;fontSize=16;gradientColor=none;arcSize=50;" vertex="1" parent="1">
          <mxGeometry x="80" y="-60" width="120" height="60" as="geometry" />
        </mxCell>
        <mxCell id="oZF6oQhaKxFa7QE7Eed3-10" value="" style="endArrow=classic;html=1;rounded=0;fontSize=12;startSize=8;endSize=8;curved=1;" edge="1" parent="1">
          <mxGeometry width="50" height="50" relative="1" as="geometry">
            <mxPoint x="139.5" as="sourcePoint" />
            <mxPoint x="140" y="40" as="targetPoint" />
          </mxGeometry>
        </mxCell>
        <mxCell id="oZF6oQhaKxFa7QE7Eed3-11" value="read a, b and c" style="shape=parallelogram;perimeter=parallelogramPerimeter;whiteSpace=wrap;html=1;fixedSize=1;fontSize=16;gradientColor=none;" vertex="1" parent="1">
          <mxGeometry x="70" y="40" width="140" height="70" as="geometry" />
        </mxCell>
        <mxCell id="oZF6oQhaKxFa7QE7Eed3-20" value="True" style="edgeStyle=none;rounded=0;orthogonalLoop=1;jettySize=auto;html=1;fontSize=15;startSize=8;endSize=8;" edge="1" parent="1" source="oZF6oQhaKxFa7QE7Eed3-12" target="oZF6oQhaKxFa7QE7Eed3-19">
          <mxGeometry relative="1" as="geometry" />
        </mxCell>
        <mxCell id="oZF6oQhaKxFa7QE7Eed3-22" style="edgeStyle=none;rounded=0;orthogonalLoop=1;jettySize=auto;html=1;exitX=1;exitY=0.5;exitDx=0;exitDy=0;fontSize=12;startSize=8;endSize=8;" edge="1" parent="1" source="oZF6oQhaKxFa7QE7Eed3-12">
          <mxGeometry relative="1" as="geometry">
            <mxPoint x="210" y="225" as="targetPoint" />
          </mxGeometry>
        </mxCell>
        <mxCell id="oZF6oQhaKxFa7QE7Eed3-12" value="if a &amp;gt; b and a &amp;gt; c" style="rhombus;whiteSpace=wrap;html=1;fontSize=16;gradientColor=none;" vertex="1" parent="1">
          <mxGeometry x="70" y="160" width="140" height="130" as="geometry" />
        </mxCell>
        <mxCell id="oZF6oQhaKxFa7QE7Eed3-30" value="True" style="edgeStyle=none;rounded=0;orthogonalLoop=1;jettySize=auto;html=1;fontSize=14;startSize=8;endSize=8;exitX=1;exitY=0.5;exitDx=0;exitDy=0;entryX=0.5;entryY=0;entryDx=0;entryDy=0;" edge="1" parent="1" source="oZF6oQhaKxFa7QE7Eed3-14" target="oZF6oQhaKxFa7QE7Eed3-29">
          <mxGeometry x="-0.4738" y="20" relative="1" as="geometry">
            <mxPoint x="642" y="390" as="targetPoint" />
            <Array as="points">
              <mxPoint x="640" y="340" />
            </Array>
            <mxPoint as="offset" />
          </mxGeometry>
        </mxCell>
        <mxCell id="oZF6oQhaKxFa7QE7Eed3-14" value="if c &amp;gt; a and c &amp;gt; b" style="rhombus;whiteSpace=wrap;html=1;fontSize=16;gradientColor=none;" vertex="1" parent="1">
          <mxGeometry x="430" y="290" width="130" height="100" as="geometry" />
        </mxCell>
        <mxCell id="oZF6oQhaKxFa7QE7Eed3-28" value="True" style="edgeStyle=none;rounded=0;orthogonalLoop=1;jettySize=auto;html=1;fontSize=14;startSize=8;endSize=8;exitX=0;exitY=0.5;exitDx=0;exitDy=0;" edge="1" parent="1" source="oZF6oQhaKxFa7QE7Eed3-15">
          <mxGeometry x="0.2258" y="-25" relative="1" as="geometry">
            <mxPoint x="-240" y="410" as="targetPoint" />
            <Array as="points">
              <mxPoint x="-240" y="340" />
            </Array>
            <mxPoint x="10" y="-20" as="offset" />
          </mxGeometry>
        </mxCell>
        <mxCell id="oZF6oQhaKxFa7QE7Eed3-15" value="if b &amp;gt; a and b &amp;gt; c" style="rhombus;whiteSpace=wrap;html=1;fontSize=16;gradientColor=none;" vertex="1" parent="1">
          <mxGeometry x="-185" y="285" width="130" height="110" as="geometry" />
        </mxCell>
        <mxCell id="oZF6oQhaKxFa7QE7Eed3-17" value="False" style="endArrow=classic;html=1;rounded=0;fontSize=15;startSize=8;endSize=8;exitX=1;exitY=0.5;exitDx=0;exitDy=0;entryX=0.5;entryY=0;entryDx=0;entryDy=0;" edge="1" parent="1" source="oZF6oQhaKxFa7QE7Eed3-12" target="oZF6oQhaKxFa7QE7Eed3-14">
          <mxGeometry x="-0.1877" y="25" width="50" height="50" relative="1" as="geometry">
            <mxPoint x="210" y="220" as="sourcePoint" />
            <mxPoint x="290" y="310" as="targetPoint" />
            <Array as="points">
              <mxPoint x="495" y="225" />
            </Array>
            <mxPoint x="-12" y="-7" as="offset" />
          </mxGeometry>
        </mxCell>
        <mxCell id="oZF6oQhaKxFa7QE7Eed3-18" value="False" style="endArrow=classic;html=1;rounded=0;fontSize=14;startSize=8;endSize=8;exitX=0;exitY=0.5;exitDx=0;exitDy=0;entryX=0.5;entryY=0;entryDx=0;entryDy=0;" edge="1" parent="1" source="oZF6oQhaKxFa7QE7Eed3-12" target="oZF6oQhaKxFa7QE7Eed3-15">
          <mxGeometry x="-0.04" y="-15" width="50" height="50" relative="1" as="geometry">
            <mxPoint x="150" y="350" as="sourcePoint" />
            <mxPoint x="-120" y="280" as="targetPoint" />
            <Array as="points">
              <mxPoint x="-120" y="225" />
            </Array>
            <mxPoint x="15" y="-15" as="offset" />
          </mxGeometry>
        </mxCell>
        <mxCell id="oZF6oQhaKxFa7QE7Eed3-25" value="True" style="edgeStyle=none;rounded=0;orthogonalLoop=1;jettySize=auto;html=1;fontSize=14;startSize=8;endSize=8;" edge="1" parent="1" source="oZF6oQhaKxFa7QE7Eed3-19" target="oZF6oQhaKxFa7QE7Eed3-24">
          <mxGeometry relative="1" as="geometry" />
        </mxCell>
        <mxCell id="oZF6oQhaKxFa7QE7Eed3-32" value="False" style="edgeStyle=none;rounded=0;orthogonalLoop=1;jettySize=auto;html=1;fontSize=14;startSize=8;endSize=8;exitX=1;exitY=0.5;exitDx=0;exitDy=0;entryX=0.5;entryY=0;entryDx=0;entryDy=0;" edge="1" parent="1" source="oZF6oQhaKxFa7QE7Eed3-19" target="oZF6oQhaKxFa7QE7Eed3-33">
          <mxGeometry relative="1" as="geometry">
            <mxPoint x="280" y="450" as="targetPoint" />
            <Array as="points">
              <mxPoint x="280" y="410" />
            </Array>
          </mxGeometry>
        </mxCell>
        <mxCell id="oZF6oQhaKxFa7QE7Eed3-19" value="if b &amp;gt; c" style="rhombus;whiteSpace=wrap;html=1;fontSize=16;gradientColor=none;" vertex="1" parent="1">
          <mxGeometry x="100" y="370" width="80" height="80" as="geometry" />
        </mxCell>
        <mxCell id="oZF6oQhaKxFa7QE7Eed3-24" value="print a, b, c" style="shape=parallelogram;perimeter=parallelogramPerimeter;whiteSpace=wrap;html=1;fixedSize=1;fontSize=16;gradientColor=none;" vertex="1" parent="1">
          <mxGeometry x="80" y="577.5" width="120" height="60" as="geometry" />
        </mxCell>
        <mxCell id="oZF6oQhaKxFa7QE7Eed3-35" value="True" style="edgeStyle=none;rounded=0;orthogonalLoop=1;jettySize=auto;html=1;fontSize=14;startSize=8;endSize=8;" edge="1" parent="1" source="oZF6oQhaKxFa7QE7Eed3-27" target="oZF6oQhaKxFa7QE7Eed3-34">
          <mxGeometry relative="1" as="geometry" />
        </mxCell>
        <mxCell id="oZF6oQhaKxFa7QE7Eed3-37" value="False" style="edgeStyle=none;rounded=0;orthogonalLoop=1;jettySize=auto;html=1;fontSize=14;startSize=8;endSize=8;" edge="1" parent="1" source="oZF6oQhaKxFa7QE7Eed3-27">
          <mxGeometry relative="1" as="geometry">
            <mxPoint x="-100" y="510" as="targetPoint" />
            <Array as="points">
              <mxPoint x="-100" y="460" />
            </Array>
          </mxGeometry>
        </mxCell>
        <mxCell id="oZF6oQhaKxFa7QE7Eed3-27" value="if a &amp;gt; c" style="rhombus;whiteSpace=wrap;html=1;fontSize=16;gradientColor=none;" vertex="1" parent="1">
          <mxGeometry x="-305" y="410" width="130" height="110" as="geometry" />
        </mxCell>
        <mxCell id="oZF6oQhaKxFa7QE7Eed3-39" value="True" style="edgeStyle=none;rounded=0;orthogonalLoop=1;jettySize=auto;html=1;fontSize=14;startSize=8;endSize=8;" edge="1" parent="1" source="oZF6oQhaKxFa7QE7Eed3-29" target="oZF6oQhaKxFa7QE7Eed3-38">
          <mxGeometry relative="1" as="geometry" />
        </mxCell>
        <mxCell id="oZF6oQhaKxFa7QE7Eed3-41" value="False" style="edgeStyle=none;rounded=0;orthogonalLoop=1;jettySize=auto;html=1;fontSize=14;startSize=8;endSize=8;exitX=0;exitY=0.5;exitDx=0;exitDy=0;" edge="1" parent="1" source="oZF6oQhaKxFa7QE7Eed3-29" target="oZF6oQhaKxFa7QE7Eed3-40">
          <mxGeometry relative="1" as="geometry">
            <Array as="points">
              <mxPoint x="440" y="460" />
            </Array>
          </mxGeometry>
        </mxCell>
        <mxCell id="oZF6oQhaKxFa7QE7Eed3-29" value="if a &amp;gt; b" style="rhombus;whiteSpace=wrap;html=1;fontSize=16;gradientColor=none;" vertex="1" parent="1">
          <mxGeometry x="575" y="410" width="130" height="100" as="geometry" />
        </mxCell>
        <mxCell id="oZF6oQhaKxFa7QE7Eed3-33" value="print a, c, b" style="shape=parallelogram;perimeter=parallelogramPerimeter;whiteSpace=wrap;html=1;fixedSize=1;fontSize=16;gradientColor=none;" vertex="1" parent="1">
          <mxGeometry x="220" y="515" width="120" height="60" as="geometry" />
        </mxCell>
        <mxCell id="oZF6oQhaKxFa7QE7Eed3-34" value="print b, a, c " style="shape=parallelogram;perimeter=parallelogramPerimeter;whiteSpace=wrap;html=1;fixedSize=1;fontSize=16;gradientColor=none;" vertex="1" parent="1">
          <mxGeometry x="-305" y="580" width="120" height="55" as="geometry" />
        </mxCell>
        <mxCell id="oZF6oQhaKxFa7QE7Eed3-36" value="print b, c, a" style="shape=parallelogram;perimeter=parallelogramPerimeter;whiteSpace=wrap;html=1;fixedSize=1;fontSize=16;gradientColor=none;" vertex="1" parent="1">
          <mxGeometry x="-170" y="515" width="120" height="60" as="geometry" />
        </mxCell>
        <mxCell id="oZF6oQhaKxFa7QE7Eed3-38" value="print c, a, b" style="shape=parallelogram;perimeter=parallelogramPerimeter;whiteSpace=wrap;html=1;fixedSize=1;fontSize=16;gradientColor=none;" vertex="1" parent="1">
          <mxGeometry x="580" y="580" width="120" height="60" as="geometry" />
        </mxCell>
        <mxCell id="oZF6oQhaKxFa7QE7Eed3-40" value="print c, b, a" style="shape=parallelogram;perimeter=parallelogramPerimeter;whiteSpace=wrap;html=1;fixedSize=1;fontSize=16;gradientColor=none;" vertex="1" parent="1">
          <mxGeometry x="380" y="515" width="120" height="60" as="geometry" />
        </mxCell>
        <mxCell id="oZF6oQhaKxFa7QE7Eed3-43" value="" style="ellipse;whiteSpace=wrap;html=1;aspect=fixed;fontSize=14;gradientColor=none;" vertex="1" parent="1">
          <mxGeometry x="125" y="690" width="30" height="30" as="geometry" />
        </mxCell>
        <mxCell id="oZF6oQhaKxFa7QE7Eed3-44" value="End" style="rounded=1;whiteSpace=wrap;html=1;fontSize=16;gradientColor=none;arcSize=50;" vertex="1" parent="1">
          <mxGeometry x="80" y="760" width="120" height="60" as="geometry" />
        </mxCell>
        <mxCell id="oZF6oQhaKxFa7QE7Eed3-45" value="" style="endArrow=classic;html=1;rounded=0;fontSize=14;startSize=8;endSize=8;entryX=0.5;entryY=0;entryDx=0;entryDy=0;exitX=0.5;exitY=1;exitDx=0;exitDy=0;" edge="1" parent="1" source="oZF6oQhaKxFa7QE7Eed3-43" target="oZF6oQhaKxFa7QE7Eed3-44">
          <mxGeometry width="50" height="50" relative="1" as="geometry">
            <mxPoint x="30" y="740" as="sourcePoint" />
            <mxPoint x="80" y="690" as="targetPoint" />
          </mxGeometry>
        </mxCell>
        <mxCell id="oZF6oQhaKxFa7QE7Eed3-46" value="" style="endArrow=classic;html=1;rounded=0;fontSize=14;startSize=8;endSize=8;entryX=0.5;entryY=0;entryDx=0;entryDy=0;exitX=0.5;exitY=1;exitDx=0;exitDy=0;" edge="1" parent="1" source="oZF6oQhaKxFa7QE7Eed3-24" target="oZF6oQhaKxFa7QE7Eed3-43">
          <mxGeometry width="50" height="50" relative="1" as="geometry">
            <mxPoint x="20" y="685" as="sourcePoint" />
            <mxPoint x="70" y="635" as="targetPoint" />
          </mxGeometry>
        </mxCell>
        <mxCell id="oZF6oQhaKxFa7QE7Eed3-47" value="" style="endArrow=classic;html=1;rounded=0;fontSize=14;startSize=8;endSize=8;entryX=1;entryY=0.5;entryDx=0;entryDy=0;exitX=0.5;exitY=1;exitDx=0;exitDy=0;" edge="1" parent="1" target="oZF6oQhaKxFa7QE7Eed3-43">
          <mxGeometry width="50" height="50" relative="1" as="geometry">
            <mxPoint x="279.5" y="575" as="sourcePoint" />
            <mxPoint x="279.5" y="627.5" as="targetPoint" />
            <Array as="points">
              <mxPoint x="280" y="705" />
            </Array>
          </mxGeometry>
        </mxCell>
        <mxCell id="oZF6oQhaKxFa7QE7Eed3-50" value="" style="endArrow=none;html=1;rounded=0;fontSize=14;startSize=8;endSize=8;" edge="1" parent="1">
          <mxGeometry width="50" height="50" relative="1" as="geometry">
            <mxPoint x="280" y="680" as="sourcePoint" />
            <mxPoint x="440" y="575" as="targetPoint" />
            <Array as="points">
              <mxPoint x="440" y="680" />
            </Array>
          </mxGeometry>
        </mxCell>
        <mxCell id="oZF6oQhaKxFa7QE7Eed3-51" value="" style="endArrow=none;html=1;rounded=0;fontSize=14;startSize=8;endSize=8;" edge="1" parent="1">
          <mxGeometry width="50" height="50" relative="1" as="geometry">
            <mxPoint x="440" y="680" as="sourcePoint" />
            <mxPoint x="640" y="640" as="targetPoint" />
            <Array as="points">
              <mxPoint x="640" y="680" />
            </Array>
          </mxGeometry>
        </mxCell>
        <mxCell id="oZF6oQhaKxFa7QE7Eed3-52" value="" style="endArrow=classic;html=1;rounded=0;fontSize=14;startSize=8;endSize=8;exitX=0.417;exitY=1.067;exitDx=0;exitDy=0;exitPerimeter=0;" edge="1" parent="1" source="oZF6oQhaKxFa7QE7Eed3-36">
          <mxGeometry width="50" height="50" relative="1" as="geometry">
            <mxPoint x="-120" y="670" as="sourcePoint" />
            <mxPoint x="120" y="710" as="targetPoint" />
            <Array as="points">
              <mxPoint x="-120" y="710" />
            </Array>
          </mxGeometry>
        </mxCell>
        <mxCell id="oZF6oQhaKxFa7QE7Eed3-55" value="" style="endArrow=none;html=1;rounded=0;fontSize=14;startSize=8;endSize=8;entryX=0.5;entryY=1;entryDx=0;entryDy=0;" edge="1" parent="1" target="oZF6oQhaKxFa7QE7Eed3-34">
          <mxGeometry width="50" height="50" relative="1" as="geometry">
            <mxPoint x="-120" y="710" as="sourcePoint" />
            <mxPoint x="160" y="480" as="targetPoint" />
            <Array as="points">
              <mxPoint x="-245" y="710" />
            </Array>
          </mxGeometry>
        </mxCell>
      </root>
    </mxGraphModel>
  </diagram>
</mxfile>
